Coordinates
version=1
nRows=19
nColumns=34
inDegrees=yes

Units are S.I. units (second, meters, Newtons, ...)
If the header above contains a line with 'inDegrees', this indicates whether rotational values are in degrees (yes) or radians (no).

endheader
time	pelvis_tilt	pelvis_list	pelvis_rotation	pelvis_tx	pelvis_ty	pelvis_tz	hip_flexion_r	hip_adduction_r	hip_rotation_r	knee_angle_r	ankle_angle_r	subtalar_angle_r	mtp_angle_r	hip_flexion_l	hip_adduction_l	hip_rotation_l	knee_angle_l	ankle_angle_l	subtalar_angle_l	mtp_angle_l	lumbar_extension	lumbar_bending	lumbar_rotation	arm_flex_r	arm_add_r	arm_rot_r	elbow_flex_r	pro_sup_r	arm_flex_l	arm_add_l	arm_rot_l	elbow_flex_l	pro_sup_l
      5.21666670	     -4.79321571	     -3.87593093	    170.16286100	     -4.16911557	      0.98354558	     -1.32183407	    -15.92574890	     -2.07646847	     -0.18215333	     16.80574430	     17.68124745	      7.03974330	      0.00000000	     39.27071350	      1.24460220	    -10.30248768	     98.04259633	    -14.10616116	    -34.93432879	      0.00000000	    -36.41335725	     -4.37332105	     12.66202719	     28.47718755	    -20.64897717	     32.24172782	    118.25649265	    110.21562998	     -7.67556886	     -8.38526310	    344.00961498	     57.73110568	     90.04259691
      5.23333330	     -4.81352823	     -6.83638399	    171.96462901	     -4.23042557	      0.99624537	     -1.33164975	    -20.70521973	     -4.24690103	     -3.76291190	     14.09612397	     10.35959066	      6.67847745	      0.00000000	     38.34856195	      5.93243209	     -9.98471655	     82.48136632	    -10.59586231	    -35.00000000	      0.00000000	    -34.72701346	     -7.24239886	     12.61922362	     24.97029555	    -20.11757232	     37.46452945	    120.02456782	    111.32667542	     -8.39109277	     -8.27774009	    343.28755287	     57.10268053	     89.76528761
      5.25000000	     -5.23457950	     -8.13739758	    172.79800826	     -4.29207636	      1.00195449	     -1.34177136	    -24.83805931	     -4.79761830	     -6.53181019	     13.48932602	      0.38832863	      4.93791732	      0.00000000	     35.22464781	      9.50642912	     -7.92373967	     65.79891255	     -5.07404077	    -30.16498838	      0.00000000	    -33.19820911	     -8.63106564	     13.43108633	     22.50692153	    -20.68383480	     47.57290251	    120.21786250	    113.24992968	     -9.87909635	     -7.84508254	    341.21737470	     56.37695804	     89.14750707
      5.26666670	     -6.58680630	     -7.36928736	    172.53855090	     -4.35406033	      1.00744751	     -1.35321867	    -28.32492881	     -3.53157746	     -7.07001318	     15.48411154	    -10.62182768	      0.59171567	      0.00000000	     29.97165906	     10.44805921	     -4.84690411	     48.82163502	     -4.06387564	    -22.50742002	      0.00000000	    -32.49238644	     -8.31252298	     16.59605133	     21.16490341	    -21.92529176	     58.19833261	    120.26178148	    113.92248057	    -10.59597395	     -6.98816705	    338.40263787	     55.03218539	     88.65524979
      5.28333330	     -7.78646583	     -4.75350249	    172.42145898	     -4.41653353	      1.01203880	     -1.36394445	    -30.00000025	     -0.30999387	     -5.99384150	     20.70014034	    -19.53219605	     -5.71805459	      0.00000000	     24.32842486	      8.53414231	     -2.27908105	     32.63404468	     -9.02532763	    -14.79157675	      0.00000000	    -31.87993738	     -5.95101646	     20.32758211	     20.94810413	    -23.32017546	     67.55206810	    120.00016705	    113.99654041	    -11.64138395	     -5.98806360	    334.65519785	     54.52883385	     88.20182915
      5.30000000	     -8.35494721	     -1.46331211	    173.21278221	     -4.47922980	      1.01291940	     -1.37287953	    -30.00000025	      4.11636808	     -4.54337007	     28.26918532	    -25.32314388	    -12.48171786	      0.00000000	     20.56637345	      5.27818109	     -2.41633747	     19.63326824	    -12.64302898	     -6.12440435	      0.00000000	    -30.88214084	     -2.17939279	     22.50074424	     23.27008733	    -24.25889958	     74.33197365	    120.42505515	    113.36755517	    -13.15951456	     -4.65272969	    328.79280758	     55.91155594	     87.71284206
      5.31666670	     -9.25676119	      1.12124317	    173.94207099	     -4.54145308	      1.00950133	     -1.38107655	    -29.42874658	      7.63936938	     -3.79907268	     37.83898109	    -26.61746216	    -17.88432561	      0.00000000	     17.75455973	      2.98106089	     -4.51182118	     10.17272310	    -14.22338980	      2.90613437	      0.00000000	    -31.13352858	      0.90739625	     23.41760322	     25.85368202	    -25.57200276	     75.35200221	    122.65833871	    112.35155060	    -14.78634508	     -3.29376598	    322.51256208	     59.23431228	     87.30704656
      5.33333330	     -9.58700335	      2.97946004	    174.25559918	     -4.60322173	      1.00241737	     -1.38976165	    -27.89024645	     10.04495155	     -3.86720247	     47.91250760	    -23.39780784	    -21.03484559	      0.00000000	     16.80521069	      1.52100916	     -6.91248662	      5.01018583	    -15.18335731	      9.32573537	      0.00000000	    -30.69212221	      3.46135852	     22.97799609	     28.27659002	    -26.74359878	     69.57540997	    123.97358168	    110.98553567	    -16.97713794	     -1.97654084	    315.83903938	     63.82743500	     86.97201676
      5.35000000	     -9.80758729	      3.64375697	    174.50192356	     -4.66431990	      0.99239194	     -1.39942485	    -25.67111694	     11.05009931	     -5.00915313	     58.54945028	    -18.00201294	    -22.55221597	      0.00000000	     16.63076295	      1.18962112	     -7.03981443	      3.35041298	    -14.50812955	     11.38164851	      0.00000000	    -29.98331244	      4.64639001	     21.61090162	     29.44771140	    -27.19039449	     58.48147686	    122.75806548	    109.47335519	    -18.63349043	     -1.69645319	    309.63633731	     68.26510546	     86.75084359
      5.36666670	    -10.63943590	      3.78908959	    174.69298592	     -4.72533421	      0.98230389	     -1.40931016	    -23.38200949	     11.10784864	     -6.79886138	     69.68108592	    -14.40804788	    -22.95943897	      0.00000000	     15.48375498	      1.13974599	     -5.43999941	      3.92582543	    -12.79670775	     10.31867364	      0.00000000	    -29.81447270	      5.01545212	     20.08453324	     29.35373536	    -26.17455088	     45.00381700	    118.91453489	    108.11854187	    -19.45868637	     -2.58532752	    304.78801314	     71.56418642	     86.68936648
      5.38333330	    -11.58056425	      3.82704089	    175.20099871	     -4.78571627	      0.97274175	     -1.41839307	    -20.42723085	     10.74041490	     -9.18170145	     80.64211506	    -13.49223682	    -23.32471676	      0.00000000	     14.05591591	      1.11770384	     -2.72438560	      6.08683501	     -9.92368115	      7.28204945	      0.00000000	    -29.61814696	      5.11152064	     18.62616912	     27.99185359	    -24.32165378	     33.35059371	    115.19793191	    107.11232697	    -19.23217514	     -4.28490970	    301.68007168	     74.69883801	     86.83145705
      5.40000000	    -12.52110648	      3.65818617	    175.38000865	     -4.84444664	      0.96374357	     -1.42739092	    -17.09025771	      9.46559352	    -11.04788440	     90.31229198	    -13.75222685	    -23.52745125	      0.00000000	     12.49384893	      1.29679827	      0.32069982	      9.50433771	     -6.99696137	      2.34697688	      0.00000000	    -29.37557571	      4.50581943	     18.08696741	     24.12180210	    -22.86439469	     24.42810943	    113.19227844	    106.34265410	    -17.79253017	     -6.76186137	    300.98890128	     77.82037478	     87.51463353
      5.41666670	    -13.69887898	      3.09783107	    175.93615016	     -4.90043894	      0.95389224	     -1.43527407	    -14.07695478	      7.47531678	    -12.36696183	     97.93765873	    -13.27697614	    -22.56389374	      0.00000000	     11.00373940	      2.15854052	      2.90751038	     14.63489907	     -2.95447084	     -2.45134815	      0.00000000	    -29.42482112	      3.75758625	     15.48135939	     20.85562969	    -20.78015467	     19.66655423	    110.51020791	    106.04829880	    -16.73842185	     -9.38025585	    301.58048167	     80.13946683	     87.85210805
      5.43333330	    -14.30682106	      1.68381461	    175.75745189	     -4.95310721	      0.94676366	     -1.44337280	     -9.96097270	      4.46988320	    -11.92355496	    104.36307390	    -11.07981946	    -20.64897375	      0.00000000	     10.14588179	      3.95075823	      4.19627676	     20.66109167	      0.46066520	     -9.04267444	      0.00000000	    -29.40946189	      1.42891809	     13.70173351	     15.72752331	    -18.65339233	     14.12007551	    109.34311557	    105.80508875	    -14.25102082	    -12.11903284	    303.37294235	     82.96376355	     88.36168656
      5.45000000	    -14.84099529	      0.04366819	    176.16866356	     -5.00156516	      0.94398036	     -1.45055096	     -4.59856469	      1.48945493	    -11.26722598	    109.64182588	     -8.25179249	    -18.64696885	      0.00000000	      9.09019584	      5.84193832	      4.49481095	     26.56307065	      5.18813386	    -13.33759139	      0.00000000	    -29.97047055	     -0.87088882	     10.31434360	     11.99191013	    -15.78771333	     10.36707496	    107.39146557	    105.76662478	    -11.60372467	    -14.92627471	    305.62600133	     85.36633809	     88.66144066
      5.46666670	    -15.02699671	     -1.92044435	    177.03672377	     -5.04685645	      0.94456983	     -1.45757874	      3.20366808	     -1.87698298	    -10.38607457	    114.41979301	     -5.38576879	    -16.97274653	      0.00000000	      7.66565665	      7.76474927	      4.55719009	     30.75534450	      9.22364168	    -16.24567529	      0.00000000	    -31.15217339	     -3.08209507	      5.76315763	      9.04140459	    -12.65186609	      9.30723828	    106.62968228	    105.84728458	     -8.29694851	    -17.58487382	    308.15243065	     87.36265379	     88.82370855
      5.48333330	    -15.04234281	     -4.08408307	    178.19934528	     -5.09343214	      0.94789576	     -1.46529472	     12.27612875	     -5.59590859	     -8.90091687	    117.31637616	     -1.40966114	    -14.91442858	      0.00000000	      5.23256889	      9.45581840	      4.48475280	     32.70780362	     12.16000039	    -18.10965122	      0.00000000	    -32.35568834	     -4.87513275	      1.37348773	      5.11357895	     -9.90631510	     10.62062700	    107.23027299	    106.29314416	     -3.49615499	    -19.94073600	    311.85774238	     87.91125998	     88.75642917
      5.50000000	    -15.05359349	     -5.29542751	    179.39167260	     -5.14317974	      0.95566597	     -1.47377908	     20.01845599	     -7.74712949	     -7.00287854	    115.38132878	      2.38392064	    -13.33240183	      0.00000000	      1.68764026	      9.69676314	      4.28228748	     32.78972418	     13.88494978	    -18.17375720	      0.00000000	    -33.72365215	     -5.28316882	     -3.26412762	      1.60517556	     -8.08305345	     14.52360680	    107.47083224	    106.58400365	      0.40188329	    -21.36964364	    314.84189096	     88.51848353	     88.74742965
      5.51666670	    -14.92065677	     -4.75350783	    179.96784889	     -5.19463319	      0.96485130	     -1.48279379	     24.43969560	     -6.98266812	     -5.18622290	    108.24436797	      3.89132232	    -13.50267960	      0.00000000	     -2.09301623	      7.96597126	      3.62777127	     32.11840486	     14.58528508	    -17.25608199	      0.00000000	    -34.28844550	     -4.06357832	     -6.06680833	     -1.05507856	     -7.06602442	     15.72577743	    105.83873435	    106.58294702	      4.38882079	    -21.79161367	    319.51413008	     89.05968017	     88.60876876
